# xmcd
# 
# Track frame offsets:
#     150
#     40630
#     58725
#     83725
#     115900
#     137845
#     160722
# 
# Disc length: 2411
# 
# Revision: 1
# Processed by: cddbd v1.5.2PL0 Copyright (c) Steve Scherf et al.
# Submitted via: fre:ac v1.0.27
# 
DISCID=52096907
DTITLE=Gerry Mulligan - The Jazz Greats
DYEAR=1991
DGENRE=Jazz
TTITLE0=The Jazz Greats-G.Mulligan&Co.- Blues From Neither Coast
TTITLE1=The Jazz Greats-G.Mulligan&Co.- Latined Fracture
TTITLE2=The Jazz Greats-G.Mulligan&Co.- Poor Dr.Millmoss
TTITLE3=The Jazz Greats-G.Mulligan&Co.- Minor Matters
TTITLE4=The Jazz Greats-G.Mulligan&Co.- My Sweety Went Away
TTITLE5=The Jazz Greats-G.Mulligan&Co.- All Too Soon
TTITLE6=The Jazz Greats-G.Mulligan&Co.- See here, Miss Bromley
EXTD=YEAR: 1991
EXTT0=
EXTT1=
EXTT2=
EXTT3=
EXTT4=
EXTT5=
EXTT6=
PLAYORDER=
